<svg width="294" height="59" viewBox="0 0 294 59" fill="none" xmlns="http://www.w3.org/2000/svg">
<path d="M33.28 46.128C29.568 46.128 27.5627 45.5307 27.264 44.336L25.152 36.08H14.976L13.12 44.016C12.864 45.3387 10.816 46 6.976 46C4.928 46 3.41333 45.8933 2.432 45.68C1.45067 45.424 0.96 45.232 0.96 45.104L12.288 1.776C12.288 1.43466 15.2107 1.264 21.056 1.264C26.9013 1.264 29.824 1.43466 29.824 1.776L40.896 45.168C40.896 45.4667 39.9147 45.7013 37.952 45.872C35.9893 46.0427 34.432 46.128 33.28 46.128ZM16.576 27.952H23.296L20.416 14.704H20.032L16.576 27.952ZM44.4975 14.384C44.4975 13.9147 46.3322 13.68 50.0015 13.68C53.6708 13.68 55.5055 13.9147 55.5055 14.384V33.072C55.5055 35.2053 56.1882 36.272 57.5535 36.272C58.5775 36.272 59.7295 35.824 61.0095 34.928V14.384C61.0095 13.9573 62.8228 13.744 66.4495 13.744C70.0762 13.744 71.8895 13.9573 71.8895 14.384V35.376H73.5535C75.0042 35.376 75.7295 36.7627 75.7295 39.536C75.7295 40.944 75.4308 42.3733 74.8335 43.824C73.9802 45.7013 72.8282 46.64 71.3775 46.64C68.5188 46.64 66.4068 45.4667 65.0415 43.12L64.9775 43.184C62.3748 45.488 59.5802 46.64 56.5935 46.64C52.4548 46.64 49.4042 45.616 47.4415 43.568C45.4788 41.4773 44.4975 38.0427 44.4975 33.264V14.384ZM95.822 1.584C95.822 0.943998 97.5073 0.623997 100.878 0.623997C102.03 0.623997 103.353 0.70933 104.846 0.879997C106.382 1.008 107.15 1.2 107.15 1.456V35.184H109.39C110.457 35.184 111.161 36.144 111.502 38.064C111.587 38.6187 111.63 39.3867 111.63 40.368C111.63 41.3067 111.331 42.4587 110.734 43.824C109.881 45.7013 108.515 46.64 106.638 46.64C105.23 46.64 103.971 46.3627 102.862 45.808C101.795 45.2533 101.07 44.6773 100.686 44.08L100.11 43.248C97.7633 45.5093 94.8193 46.64 91.278 46.64C87.7367 46.64 84.7073 45.168 82.19 42.224C79.6727 39.28 78.414 35.184 78.414 29.936C78.414 24.6453 79.7367 20.5707 82.382 17.712C85.0273 14.8107 88.334 13.36 92.302 13.36C93.454 13.36 94.6273 13.488 95.822 13.744V1.584ZM93.71 23.6C91.3207 23.6 90.126 25.7547 90.126 30.064C90.126 32.24 90.4673 33.8187 91.15 34.8C91.8327 35.7387 92.5793 36.208 93.39 36.208C94.2433 36.208 95.054 35.8453 95.822 35.12V24.24C95.0967 23.8133 94.3927 23.6 93.71 23.6ZM127.53 45.616C127.53 45.9573 125.567 46.128 121.642 46.128C117.759 46.128 115.818 45.9787 115.818 45.68V14.256C115.818 13.9573 117.759 13.808 121.642 13.808C125.567 13.808 127.53 13.936 127.53 14.192V45.616ZM127.53 10.416C127.53 10.7147 125.567 10.864 121.642 10.864C117.759 10.864 115.818 10.736 115.818 10.48V1.264C115.818 0.83733 117.759 0.623997 121.642 0.623997C125.567 0.623997 127.53 0.751998 127.53 1.008V10.416ZM136.07 42.224C133.424 39.28 132.102 35.2053 132.102 30C132.102 24.7947 133.424 20.72 136.07 17.776C138.758 14.832 142.363 13.36 146.885 13.36C151.408 13.36 154.992 14.832 157.638 17.776C160.283 20.72 161.606 24.7947 161.606 30C161.606 35.2053 160.283 39.28 157.638 42.224C154.992 45.168 151.408 46.64 146.885 46.64C142.363 46.64 138.758 45.168 136.07 42.224ZM146.885 24.048C144.496 24.048 143.302 26.0107 143.302 29.936C143.302 33.8613 144.496 35.824 146.885 35.824C149.318 35.824 150.534 33.8613 150.534 29.936C150.534 26.0107 149.318 24.048 146.885 24.048ZM179.89 57.648C179.89 57.9467 178.055 58.096 174.386 58.096C170.759 58.096 168.946 57.9467 168.946 57.648V24.688H166.77C165.746 24.688 165.042 23.7493 164.658 21.872C164.53 21.2747 164.466 20.5067 164.466 19.568C164.466 18.6293 164.765 17.52 165.362 16.24C166.215 14.3627 167.581 13.424 169.458 13.424C170.695 13.424 171.826 13.7227 172.85 14.32C173.917 14.8747 174.642 15.408 175.026 15.92C175.453 16.3893 175.666 16.6667 175.666 16.752C178.525 14.5333 181.618 13.424 184.946 13.424C188.274 13.424 191.133 14.7253 193.522 17.328C195.911 19.888 197.106 23.8773 197.106 29.296C197.106 34.672 195.911 38.8533 193.522 41.84C191.133 44.784 188.103 46.256 184.434 46.256C182.77 46.256 181.255 46.1707 179.89 46V57.648ZM182.514 24.624C181.789 24.624 181.085 24.8587 180.402 25.328V36.656C181.127 36.7413 181.703 36.784 182.13 36.784C182.599 36.784 182.962 36.784 183.218 36.784C184.967 36.6133 185.842 34.3733 185.842 30.064C185.842 26.4373 184.733 24.624 182.514 24.624ZM204.382 42.224C201.737 39.28 200.414 35.2053 200.414 30C200.414 24.7947 201.737 20.72 204.382 17.776C207.07 14.832 210.675 13.36 215.198 13.36C219.721 13.36 223.305 14.832 225.95 17.776C228.595 20.72 229.918 24.7947 229.918 30C229.918 35.2053 228.595 39.28 225.95 42.224C223.305 45.168 219.721 46.64 215.198 46.64C210.675 46.64 207.07 45.168 204.382 42.224ZM215.198 24.048C212.809 24.048 211.614 26.0107 211.614 29.936C211.614 33.8613 212.809 35.824 215.198 35.824C217.63 35.824 218.846 33.8613 218.846 29.936C218.846 26.0107 217.63 24.048 215.198 24.048ZM246.091 45.488C246.091 45.872 243.915 46.064 239.562 46.064C236.149 46.0213 234.443 45.8507 234.443 45.552V1.968C234.443 1.328 236.512 1.008 240.651 1.008C244.277 1.136 246.091 1.34933 246.091 1.648V45.488ZM263.592 45.616C263.592 45.9573 261.629 46.128 257.704 46.128C253.821 46.128 251.88 45.9787 251.88 45.68V14.256C251.88 13.9573 253.821 13.808 257.704 13.808C261.629 13.808 263.592 13.936 263.592 14.192V45.616ZM263.592 10.416C263.592 10.7147 261.629 10.864 257.704 10.864C253.821 10.864 251.88 10.736 251.88 10.48V1.264C251.88 0.83733 253.821 0.623997 257.704 0.623997C261.629 0.623997 263.592 0.751998 263.592 1.008V10.416ZM270.724 34.48C274.18 36.5707 276.911 37.616 278.916 37.616C280.196 37.616 280.836 37.168 280.836 36.272C280.836 35.632 279.727 34.8 277.508 33.776C272.175 31.6 269.508 28.0373 269.508 23.088C269.508 19.9307 270.66 17.52 272.964 15.856C275.268 14.192 278.02 13.36 281.22 13.36C284.463 13.36 287.193 13.7013 289.412 14.384C291.673 15.0667 292.804 15.9627 292.804 17.072C292.804 18.0107 292.335 19.248 291.396 20.784C290.5 22.32 289.881 23.152 289.54 23.28C287.705 22.256 285.721 21.744 283.588 21.744C282.436 21.744 281.86 22.1493 281.86 22.96C281.86 23.472 282.073 23.92 282.5 24.304C282.969 24.6453 283.801 25.0933 284.996 25.648C286.191 26.16 287.172 26.6293 287.94 27.056C288.751 27.4827 289.647 28.08 290.628 28.848C292.676 30.4693 293.7 32.5813 293.7 35.184C293.7 38.5973 292.569 41.3707 290.308 43.504C288.047 45.5947 284.633 46.64 280.068 46.64C277.039 46.64 274.287 46.128 271.812 45.104C269.337 44.08 268.1 42.672 268.1 40.88C268.1 39.6853 268.377 38.4267 268.932 37.104C269.529 35.7813 270.127 34.9067 270.724 34.48Z" fill="black"/>
</svg>
